<svg width="400" height="400" xmlns="http://www.w3.org/2000/svg"><g id="headline" fill="#fff"><ellipse cx="222" cy="144"  rx="82" ry="90"/><ellipse cx="155" cy="202"  rx="75" ry="13" transform="rotate(22,155,202)"/><ellipse cx="159" cy="165"  rx="75" ry="21" transform="rotate(-7,159,165)"/></g><g id="headfill" fill="#e0a765" opacity=".80"><ellipse cx="222" cy="144"  rx="82" ry="90" /><ellipse cx="155" cy="202"  rx="75" ry="13" transform="rotate(22,155,202)"/><ellipse cx="159" cy="165"  rx="75" ry="21" transform="rotate(-7,159,165)"/></g><g id="eyewhites" fill="#fff"><ellipse  cx="178" cy="173" rx="12" ry="20" transform="rotate(-43,178,173)"/><ellipse  cx="188" cy="167" rx="17" ry="22"/><ellipse  cx="281" cy="155" rx="8" ry="21" transform="rotate(9,281,155)"/><ellipse  cx="270" cy="150" rx="10" ry="21"/></g><g id="eyecolor" stroke="#8284bd" ><line x1="172" y1="155" x2="192" y2="187" stroke-width="12" /><line x1="261" y1="149" x2="273" y2="170" stroke-width="11" /></g><g id="eyes" transform="translate(65,270) scale(0.1,-0.1)" fill="#000000" ><path d="M1978 1449 c-27 -17 -48 -38 -48 -45 0 -19 15 -18 48 4 25 16 24 13 -9 -28 -53 -66 -60 -82 -65 -173 -7 -116 9 -173 61 -209 43 -29 159 -78 188 -78 9 0 17 7 17 15 0 8 -7 15 -16 15 -9 0 -14 3 -12 8 2 4 15 30 29 57 27 51 43 109 55 200 4 28 9 44 11 38 3 -7 12 -13 20 -13 19 0 12 34 -25 110 -14 30 -25 65 -24 77 4 32 -43 53 -120 53 -54 0 -70 -5 -110 -31z m88 -94 c10 -16 14 -34 10 -50 -15 -60 -73 -30 -60 30 11 54 24 59 50 20z m-109 -192 c-3 -10 -5 -4 -5 12 0 17 2 24 5 18 2 -7 2 -21 0 -30z m43 -106 c0 -5 -7 -4 -15 3 -8 7 -15 20 -15 29 1 13 3 13 15 -3 8 -11 15 -24 15 -29z m150 -3 c0 -8 -4 -14 -9 -14 -11 0 -22 26 -14 34 9 9 23 -3 23 -20z m-67 -45 c-6 -6 -17 -8 -24 -3 -9 5 -8 9 7 14 23 9 31 3 17 -11z"/><path d="M1214 1356 c-71 -16 -131 -45 -158 -75 -19 -21 -19 -21 0 -21 11 0 30 7 42 16 45 31 134 54 213 54 72 0 104 10 79 25 -22 14 -118 14 -176 1z"/><path d="M1129 1280 c-48 -25 -146 -115 -164 -150 -20 -39 -30 -106 -16 -114 6 -4 16 8 25 27 21 52 32 52 45 1 23 -91 57 -142 123 -187 35 -23 36 -25 16 -30 -21 -6 -21 -7 -3 -27 23 -25 50 -25 128 1 74 25 118 64 148 133 18 43 21 63 16 131 -3 44 -12 96 -20 115 -16 37 -67 90 -104 109 -36 18 -153 13 -194 -9z m69 -72 c-3 -26 -42 -36 -68 -18 -13 9 -12 12 4 25 11 8 31 15 44 15 19 0 23 -5 20 -22z m-45 -241 c15 -18 39 -31 75 -39 38 -10 52 -17 52 -30 0 -33 -58 -22 -115 21 -57 43 -94 107 -103 176 -4 38 -3 37 32 -30 20 -39 47 -83 59 -98z m214 -17 c2 -8 -2 -22 -7 -30 -9 -13 -11 -13 -20 0 -16 25 -12 52 7 48 10 -2 19 -10 20 -18z"/></g></svg>
